# xmcd
#
# Track frame offsets: 
#        150
#        17922
#        32052
#        51605
#        74000
#        94160
#        120817
#        140220
#        160552
#        182310
#        206520
#        226965
#        251312
#        267637
#        283257
#
# Disc length: 4144 seconds
#
# Revision: 0
# Processed by: cddbd v1.5.1PL0 Copyright (c) Steve Scherf et al.
# Submitted via: ExactAudioCopy v0.95a5
#
DISCID=da102e0f
DTITLE=Various Artist - color of the soul train
DYEAR=2003
DGENRE=Soul
TTITLE0=Big Mama and ÈÖ¼º/Part Time Lover
TTITLE1=°Å¹Ì/Queen Of The Night
TTITLE2=All/Got To Be Real
TTITLE3=°Å¹Ì/±×´ë µ¹¾Æ¿À¸é
TTITLE4=se7en/¿ÍÁà
TTITLE5=All/Heal The World
TTITLE6=se7en/Love Is A Wonderful Thing
TTITLE7=Big Mama/Break Away
TTITLE8=Big Mama/His Eye Is On The Sparrow
TTITLE9=ÈÖ¼º/¾ÈµÇ³ª¿ä
TTITLE10=¹Ú¹ÎÇý, ÀÌ¿µÇö and ÈÖ¼º/As
TTITLE11=All/Somebody To Love
TTITLE12=All/Ain't No Mountain High Enough
TTITLE13=All/In The Steel Of The Night
TTITLE14=All/Victory
EXTD=
EXTT0=
EXTT1=
EXTT2=
EXTT3=
EXTT4=
EXTT5=
EXTT6=
EXTT7=
EXTT8=
EXTT9=
EXTT10=
EXTT11=
EXTT12=
EXTT13=
EXTT14=
PLAYORDER=
